<svg width="87" height="49" viewBox="0 0 87 49" fill="none" xmlns="http://www.w3.org/2000/svg">
<path d="M20.8637 22.3305C23.0006 22.3305 24.7328 20.5545 24.7328 18.3638C24.7328 16.1731 23.0006 14.3972 20.8637 14.3972C18.7269 14.3972 16.9946 16.1731 16.9946 18.3638C16.9946 20.5545 18.7269 22.3305 20.8637 22.3305Z" stroke="white" stroke-width="0.731399" stroke-miterlimit="10"/>
<path d="M23.9587 10.2722C26.0955 10.2722 27.8278 8.49632 27.8278 6.30561C27.8278 4.11491 26.0955 2.33899 23.9587 2.33899C21.8219 2.33899 20.0896 4.11491 20.0896 6.30561C20.0896 8.49632 21.8219 10.2722 23.9587 10.2722Z" stroke="white" stroke-width="0.731399" stroke-miterlimit="10"/>
<path d="M24.1096 6.74208C24.1406 6.74002 24.1708 6.73134 24.1981 6.71662C24.2254 6.7019 24.2493 6.68148 24.2681 6.65675C24.6484 6.13258 24.1657 5.97655 24.1657 5.97655L16.6883 6.57386C16.6526 6.57847 16.6163 6.57429 16.5825 6.5617C16.5487 6.54911 16.5185 6.52847 16.4945 6.50158C16.4705 6.47469 16.4534 6.44235 16.4447 6.40737C16.436 6.37238 16.4359 6.3358 16.4445 6.3008C16.5765 5.67823 16.8052 5.08017 17.1223 4.52837C17.1608 4.45819 17.2174 4.39964 17.2862 4.35886C17.355 4.31807 17.4336 4.29655 17.5136 4.29655C17.5936 4.29655 17.6722 4.31807 17.741 4.35886C17.8099 4.39964 17.8665 4.45819 17.9049 4.52837L17.9025 5.14275C17.8999 5.18461 17.9101 5.22627 17.9317 5.26221C17.9739 5.32658 18.0307 5.38004 18.0975 5.41824C18.1291 5.43471 18.1643 5.44321 18.2 5.44301C18.2357 5.44281 18.2707 5.43393 18.3022 5.41712C18.3336 5.40031 18.3605 5.37608 18.3805 5.34654C18.4005 5.317 18.413 5.28304 18.4169 5.24758C18.4754 4.75998 18.49 3.66776 17.4709 3.62388C16.0959 3.55561 15.7375 6.15696 15.6522 7.11509C15.648 7.16026 15.6535 7.2058 15.6683 7.24868C15.6831 7.29156 15.7068 7.3308 15.738 7.36378C15.7691 7.39677 15.8069 7.42274 15.8489 7.43997C15.8908 7.45721 15.936 7.4653 15.9813 7.46372H17.1028C17.1337 7.46391 17.1642 7.47054 17.1923 7.48319C17.2205 7.49583 17.2457 7.51422 17.2664 7.53716C17.287 7.56011 17.3026 7.58711 17.3123 7.61645C17.3219 7.64578 17.3253 7.6768 17.3222 7.70752L16.7981 13.3491C16.7939 13.4019 16.7706 13.4515 16.7324 13.4883C16.6942 13.5252 16.6438 13.5467 16.5908 13.549L15.0208 13.6416C14.9874 13.6432 14.9542 13.6373 14.9234 13.6243C14.8927 13.6113 14.8653 13.5915 14.8433 13.5664C14.8212 13.5414 14.8052 13.5117 14.7962 13.4795C14.7873 13.4473 14.7857 13.4136 14.7916 13.3807C14.846 13.1099 14.8786 12.8352 14.8891 12.5591C14.8891 12.2812 14.6453 12.1788 14.5185 12.1008C14.5012 12.0892 14.4813 12.082 14.4605 12.0799C14.4397 12.0778 14.4188 12.0809 14.3995 12.0888C14.3802 12.0968 14.3631 12.1094 14.3499 12.1255C14.3366 12.1416 14.3276 12.1608 14.3235 12.1813L13.7018 15.1532C13.6938 15.188 13.6945 15.2242 13.7039 15.2586C13.7132 15.2931 13.7309 15.3247 13.7554 15.3506C13.8285 15.4257 13.9265 15.4717 14.0309 15.4799C14.0802 15.4842 14.1296 15.4719 14.1711 15.445C14.2126 15.418 14.244 15.3779 14.2601 15.3311L14.5161 14.5997C14.5294 14.5598 14.554 14.5245 14.5869 14.4981C14.6197 14.4718 14.6595 14.4554 14.7014 14.451L16.5689 14.2657C16.6032 14.2621 16.6378 14.2667 16.67 14.279C16.7022 14.2912 16.731 14.3109 16.7542 14.3364L20.7525 18.7248C20.7731 18.7477 20.7983 18.766 20.8265 18.7786C20.8546 18.7912 20.885 18.7978 20.9158 18.798H21.067C21.1134 18.7982 21.1588 18.7837 21.1964 18.7566C21.2341 18.7294 21.2622 18.691 21.2767 18.6468L23.1734 13.0248C23.1855 12.989 23.1882 12.9508 23.1814 12.9137C23.1746 12.8766 23.1584 12.8418 23.1344 12.8127L18.746 7.54662C18.7259 7.52387 18.711 7.49708 18.7022 7.46806C18.6933 7.43904 18.6908 7.40846 18.6948 7.37839V7.3272C18.7009 7.27658 18.7245 7.22968 18.7614 7.19453C18.7983 7.15938 18.8463 7.13819 18.8972 7.13459L24.1096 6.74208ZM22.1373 14.0146L20.9183 17.3571C20.905 17.3926 20.8829 17.4241 20.8541 17.4486C20.8252 17.4731 20.7905 17.4898 20.7534 17.4971C20.7163 17.5045 20.6779 17.5022 20.6418 17.4905C20.6058 17.4788 20.5734 17.458 20.5477 17.4303L17.8488 14.5047C17.822 14.4751 17.8036 14.4388 17.7957 14.3996C17.7878 14.3604 17.7906 14.3198 17.8038 14.2821C17.817 14.2444 17.8402 14.211 17.8709 14.1853C17.9016 14.1597 17.9386 14.1428 17.978 14.1365L21.8788 13.5075C21.9094 13.5045 21.9402 13.5078 21.9693 13.5173C21.9985 13.5268 22.0254 13.5422 22.0483 13.5626C22.0712 13.583 22.0897 13.6079 22.1025 13.6357C22.1152 13.6636 22.1221 13.6938 22.1226 13.7245V13.9366C22.1327 13.9614 22.1377 13.9879 22.1373 14.0146ZM21.7569 12.6762L17.7708 13.3052C17.738 13.3086 17.7047 13.3047 17.6736 13.2936C17.6424 13.2826 17.6142 13.2648 17.5908 13.2414C17.5674 13.218 17.5496 13.1897 17.5385 13.1586C17.5275 13.1275 17.5236 13.0942 17.527 13.0614L18.0146 8.42917C18.0224 8.39025 18.0405 8.35414 18.067 8.32459C18.0935 8.29505 18.1275 8.27316 18.1653 8.26121C18.2032 8.24925 18.2436 8.24767 18.2822 8.25664C18.3209 8.26559 18.3565 8.28477 18.3852 8.31215L21.8886 12.3129C21.9142 12.3427 21.9314 12.3788 21.9385 12.4175C21.9455 12.4562 21.9422 12.496 21.9288 12.533C21.9154 12.5699 21.8924 12.6026 21.8622 12.6278C21.832 12.653 21.7957 12.6697 21.7569 12.6762Z" fill="white" stroke="white" stroke-width="0.2438" stroke-miterlimit="10"/>
<path d="M65.6303 41.2972L67.3101 36.8307L63.4995 34.0465H68.3731L69.9309 29.6216L71.2012 34.127H75.8699L71.9374 36.7503L73.1272 41.2972L69.6847 38.7153" fill="#F57520"/>
<path d="M45.5347 48.7628H50.4261L64.033 1.62744H59.1417L45.5347 48.7628Z" fill="white"/>
<path fill-rule="evenodd" clip-rule="evenodd" d="M52.7383 48.7628L54.2502 44.0493H71.4145L71.7135 44.0495C72.1615 44.05 72.5882 44.0505 72.9986 44.0403C75.29 43.9169 77.3833 42.6646 78.9995 41.0182C80.6744 39.3121 81.6131 37.0157 81.6134 34.6235C81.6135 32.2156 80.6631 29.9051 78.9693 28.1955C78.1052 27.3232 77.094 26.9124 75.9914 26.7165C75.2809 26.6217 74.5645 26.5653 73.8648 26.5419C73.5559 26.5356 73.2432 26.5335 72.9276 26.5314C72.8257 26.5307 72.7235 26.53 72.6211 26.5292H58.8748L60.2088 22.2603H66.9678C68.1738 22.2603 68.8877 22.2729 69.5087 22.2839C70.5363 22.3021 71.3097 22.3158 73.6379 22.2603C74.8619 22.2312 75.6672 22.1925 76.3827 21.9992C77.54 21.5659 78.6006 20.8822 79.4828 19.9832C81.0516 18.3844 81.9309 16.2324 81.9312 13.9907C81.9313 11.7342 81.0694 9.27717 79.4828 7.67505C77.8965 6.07327 75.7531 5.82592 73.5007 5.80743H65.1002L66.0785 1.62751H72.126C72.6095 1.62751 72.9971 1.62295 73.3334 1.61899C74.4817 1.60547 75.0309 1.59901 76.7506 1.80538C76.989 1.83399 77.2073 1.878 77.4097 1.93574C79.4346 2.29055 81.2992 3.03294 82.8138 4.56234C85.2684 7.04111 86.6069 10.4995 86.6228 13.9907C86.6076 17.4597 85.2409 20.7856 82.8138 23.2604C82.5035 23.5768 82.1776 23.8528 81.838 24.0938C82.0669 24.2688 82.2899 24.4645 82.5066 24.6832C85.1271 27.3283 86.605 30.8981 86.622 34.6235C86.6057 38.3253 85.1467 41.8745 82.5556 44.5154C80.8927 46.2102 78.8475 47.4084 76.6185 48.0711C75.3662 48.51 73.9359 48.7628 72.3039 48.7628H52.7383Z" fill="white"/>
<path d="M0.888916 1.6272H5.69138L17.1639 41.381L15.3853 48.7625L0.888916 1.6272Z" fill="white"/>
<path d="M17.2539 48.7628H21.9674L31.9281 10.1652L43.3117 48.7628L45.624 41.2033L33.7068 1.62744H29.2601L17.2539 48.7628Z" fill="white"/>
</svg>
