<svg width="489" height="273" viewBox="0 0 489 273" fill="none" xmlns="http://www.w3.org/2000/svg">
<path d="M117.301 123.395C129.315 123.395 139.054 113.41 139.054 101.094C139.054 88.7774 129.315 78.793 117.301 78.793C105.288 78.793 95.5487 88.7774 95.5487 101.094C95.5487 113.41 105.288 123.395 117.301 123.395Z" stroke="#101010" stroke-width="4.11201" stroke-miterlimit="10"/>
<path d="M134.696 55.6016C146.709 55.6016 156.448 45.6172 156.448 33.3008C156.448 20.9844 146.709 11 134.696 11C122.682 11 112.943 20.9844 112.943 33.3008C112.943 45.6172 122.682 55.6016 134.696 55.6016Z" stroke="#101010" stroke-width="4.11201" stroke-miterlimit="10"/>
<path d="M135.545 35.7541C135.719 35.7425 135.889 35.6937 136.042 35.611C136.196 35.5282 136.33 35.4134 136.436 35.2744C138.574 32.3274 135.86 31.4502 135.86 31.4502L93.8217 34.8083C93.6207 34.8343 93.4164 34.8108 93.2265 34.74C93.0366 34.6692 92.8668 34.5532 92.7318 34.402C92.5968 34.2508 92.5007 34.069 92.4518 33.8723C92.4028 33.6756 92.4026 33.47 92.451 33.2732C93.1932 29.773 94.4789 26.4107 96.2615 23.3084C96.4776 22.9139 96.7959 22.5847 97.1829 22.3554C97.5699 22.1261 98.0115 22.0051 98.4614 22.0051C98.9113 22.0051 99.3529 22.1261 99.7399 22.3554C100.127 22.5847 100.445 22.9139 100.661 23.3084L100.648 26.7625C100.633 26.9979 100.691 27.2321 100.812 27.4341C101.049 27.796 101.369 28.0966 101.744 28.3114C101.922 28.4039 102.12 28.4517 102.32 28.4506C102.521 28.4495 102.718 28.3995 102.895 28.305C103.072 28.2105 103.223 28.0743 103.335 27.9083C103.448 27.7422 103.518 27.5512 103.54 27.3519C103.869 24.6106 103.951 18.47 98.2215 18.2232C90.491 17.8394 88.4761 32.4645 87.9963 37.8512C87.9728 38.1052 88.0037 38.3612 88.0868 38.6023C88.17 38.8434 88.3035 39.064 88.4786 39.2494C88.6537 39.4348 88.8662 39.5809 89.1021 39.6777C89.338 39.7746 89.5919 39.8201 89.8467 39.8113H96.1518C96.3254 39.8123 96.4968 39.8496 96.6552 39.9207C96.8135 39.9918 96.9552 40.0951 97.0714 40.2242C97.1875 40.3532 97.2754 40.505 97.3295 40.6699C97.3835 40.8348 97.4026 41.0092 97.3854 41.1819L94.4385 72.8992C94.4153 73.1966 94.2839 73.4752 94.0693 73.6823C93.8546 73.8894 93.5715 74.0107 93.2734 74.0232L84.4463 74.544C84.2589 74.5532 84.0719 74.5199 83.8991 74.4468C83.7263 74.3736 83.5723 74.2624 83.4484 74.1214C83.3246 73.9805 83.2342 73.8134 83.1839 73.6326C83.1335 73.4519 83.1247 73.2621 83.1579 73.0774C83.4636 71.5548 83.6469 70.0101 83.7062 68.4583C83.7062 66.8957 82.3355 66.32 81.6227 65.8814C81.5253 65.816 81.4133 65.7756 81.2965 65.7638C81.1797 65.7521 81.0619 65.7694 80.9534 65.8141C80.8449 65.8589 80.7492 65.9297 80.6746 66.0203C80.6001 66.111 80.5491 66.2186 80.5262 66.3337L77.031 83.0422C76.9861 83.2378 76.9901 83.4414 77.0427 83.6351C77.0953 83.8288 77.1948 84.0064 77.3325 84.1524C77.7435 84.5746 78.294 84.8328 78.8814 84.8789C79.1587 84.9033 79.4361 84.8342 79.6696 84.6827C79.903 84.5312 80.0791 84.3059 80.1698 84.0428L81.609 79.9308C81.6841 79.7061 81.8222 79.5078 82.0069 79.3595C82.1916 79.2113 82.4152 79.1193 82.6507 79.0947L93.1501 78.0529C93.3427 78.0328 93.5374 78.0582 93.7184 78.1273C93.8994 78.1964 94.0615 78.3071 94.1918 78.4504L116.671 103.122C116.787 103.251 116.929 103.354 117.087 103.425C117.245 103.496 117.416 103.533 117.589 103.534H118.439C118.7 103.535 118.955 103.453 119.167 103.301C119.379 103.148 119.536 102.932 119.618 102.684L130.281 71.0762C130.349 70.8752 130.365 70.6602 130.326 70.4516C130.288 70.2429 130.197 70.0475 130.062 69.8838L105.39 40.2773C105.277 40.1494 105.193 39.9988 105.144 39.8357C105.094 39.6725 105.08 39.5006 105.102 39.3315V39.0437C105.137 38.7592 105.269 38.4954 105.477 38.2978C105.684 38.1002 105.954 37.9811 106.24 37.9609L135.545 35.7541ZM124.456 76.6412L117.603 95.433C117.528 95.6324 117.404 95.8095 117.242 95.9473C117.08 96.0851 116.885 96.179 116.676 96.2202C116.467 96.2615 116.251 96.2486 116.049 96.1827C115.846 96.1169 115.664 96.0004 115.519 95.8442L100.346 79.3962C100.195 79.2298 100.092 79.0257 100.047 78.8054C100.003 78.5852 100.019 78.357 100.093 78.145C100.167 77.933 100.298 77.745 100.47 77.6009C100.643 77.4569 100.851 77.362 101.073 77.3265L123.003 73.7902C123.175 73.7731 123.348 73.7918 123.512 73.845C123.676 73.8983 123.827 73.985 123.956 74.0996C124.085 74.2142 124.188 74.3543 124.26 74.511C124.332 74.6677 124.371 74.8377 124.374 75.0101V76.2025C124.431 76.3417 124.459 76.4909 124.456 76.6412ZM122.318 69.1162L99.9075 72.6525C99.7227 72.6719 99.5359 72.6498 99.3608 72.5877C99.1857 72.5257 99.0267 72.4254 98.8953 72.294C98.7639 72.1626 98.6636 72.0036 98.6016 71.8285C98.5395 71.6534 98.5174 71.4666 98.5368 71.2818L101.278 45.2391C101.322 45.0203 101.424 44.8173 101.573 44.6512C101.722 44.4851 101.913 44.362 102.126 44.2948C102.338 44.2276 102.565 44.2187 102.783 44.2691C103 44.3195 103.2 44.4273 103.362 44.5812L123.058 67.0739C123.202 67.2416 123.299 67.4445 123.338 67.6619C123.378 67.8793 123.359 68.1033 123.284 68.3111C123.209 68.5188 123.08 68.7029 122.91 68.8443C122.74 68.9858 122.536 69.0796 122.318 69.1162Z" fill="#101010" stroke="#101010" stroke-width="1.37067" stroke-miterlimit="10"/>
<path d="M368.98 230.027L378.424 204.916L357 189.263H384.4L393.158 164.386L400.299 189.716H426.548L404.439 204.464L411.128 230.027L391.774 215.512" fill="#F57520"/>
<path d="M256 272H283.5L360 7H332.5L256 272Z" fill="#101010"/>
<path fill-rule="evenodd" clip-rule="evenodd" d="M296.5 272L305 245.5H401.5C402.066 245.5 402.627 245.501 403.181 245.501C405.706 245.504 408.11 245.507 410.422 245.449C423.299 244.751 435.062 237.712 444.145 228.459C453.562 218.867 458.839 205.957 458.841 192.508C458.841 178.97 453.498 165.98 443.976 156.368C439.116 151.463 433.43 149.154 427.229 148.053C423.246 147.521 419.229 147.204 415.306 147.072C413.56 147.036 411.792 147.025 410.009 147.013C409.419 147.009 408.827 147.005 408.234 147C408.233 147 408.233 147 408.232 147L331 147L338.5 123H376.5C383.28 123 387.294 123.071 390.785 123.133C396.563 123.235 400.911 123.312 414 123C420.876 122.836 425.402 122.619 429.423 121.534C435.932 119.099 441.896 115.254 446.858 110.198C455.678 101.209 460.621 89.1104 460.623 76.5072C460.624 63.8207 455.778 50.0072 446.858 40.9999C437.938 31.9926 425.884 30.6033 413.218 30.4999L366 30.4999L371.5 6.99992H405.5C408.218 6.99992 410.397 6.97427 412.288 6.95202C418.744 6.87603 421.831 6.83968 431.5 7.99991C432.842 8.16099 434.071 8.40891 435.211 8.73428C446.592 10.7296 457.072 14.9034 465.585 23.4999C479.385 37.4358 486.91 56.8795 487 76.5072C486.914 96.0101 479.231 114.709 465.585 128.623C463.841 130.401 462.01 131.952 460.101 133.306C461.389 134.291 462.644 135.392 463.862 136.622C478.595 151.493 486.904 171.563 487 192.508C486.908 213.319 478.705 233.273 464.138 248.121C454.784 257.654 443.279 264.392 430.74 268.117C423.703 270.581 415.668 272 406.5 272H296.5Z" fill="#101010"/>
<path d="M5.00002 7H32L96.5 230.5L86.5 272L5.00002 7Z" fill="#101010"/>
<path d="M97 272H123.5L179.5 55L243.5 272L256.5 229.5L189.5 7H164.5L97 272Z" fill="#101010"/>
</svg>
