<svg width="59" height="69" viewBox="0 0 59 69" fill="none" xmlns="http://www.w3.org/2000/svg">
<path d="M18.4069 0.261917C17.5472 0.469925 16.2853 1.20489 15.6751 1.87051C15.37 2.20332 14.9124 2.89668 14.6767 3.40977L14.2329 4.33887L14.1913 7.76407L14.1358 11.2031H13.387C12.763 11.2031 12.5688 11.2586 12.2915 11.5498L11.9448 11.8826V21.1875V30.4924L12.2915 30.8252C12.5688 31.1164 12.763 31.1719 13.387 31.1719H14.1497L14.1913 35.7203L14.2329 40.2688L14.746 41.3227C15.37 42.5846 16.1882 43.375 17.464 43.9713C18.3237 44.3734 18.5317 44.415 20.1681 44.4566L21.9292 44.5121V45.2887C21.9292 46.4674 22.1788 47.1053 22.9692 47.8818C23.621 48.5336 24.3837 48.9219 25.0354 48.9219C25.2296 48.9219 25.2573 49.1299 25.2435 50.5443V52.1807L24.3282 52.7631L23.413 53.3594H19.6827H15.9524L15.6196 53.7061C15.3284 53.9834 15.2729 54.1775 15.2729 54.8154V55.5781H8.06201H0.851074V56.6875V57.7969H8.06201H15.2729V60.0156V62.2344H8.06201H0.851074V63.3438V64.4531H8.06201H15.2729V65.2158C15.2729 65.8537 15.3284 66.0479 15.6196 66.3252C15.9386 66.658 16.0218 66.6719 17.8384 66.6719H19.7104V67.4346C19.7104 68.0725 19.7659 68.2666 20.0571 68.5439L20.3899 68.8906H24.1479H27.906L28.2388 68.5439C28.5854 68.2111 28.5854 68.1834 28.5854 65.5625C28.5854 62.9416 28.5854 62.9139 28.2388 62.5811C27.9614 62.2898 27.7673 62.2344 27.1294 62.2344H26.3667V61.4578C26.3667 60.2514 26.6163 59.6135 27.4067 58.8369C28.8073 57.4225 30.5823 57.4225 31.9829 58.8369C32.7733 59.6135 33.0229 60.2514 33.0229 61.4578V62.2344H32.2603C31.6224 62.2344 31.4282 62.2898 31.1509 62.5811C30.8042 62.9139 30.8042 62.9416 30.8042 65.5625C30.8042 68.1834 30.8042 68.2111 31.1509 68.5439L31.4837 68.8906H35.2417H38.9997L39.3325 68.5439C39.6237 68.2666 39.6792 68.0725 39.6792 67.4346V66.6719H41.5513C43.3679 66.6719 43.4511 66.658 43.77 66.3252C44.0612 66.0479 44.1167 65.8537 44.1167 65.2158V64.4531H51.3276H58.5386V63.3438V62.2344H51.3276H44.1167V60.0156V57.7969H51.3276H58.5386V56.6875V55.5781H51.3276H44.1167V54.8154C44.1167 54.1775 44.0612 53.9834 43.77 53.7061L43.4372 53.3594H39.7347H36.0321L35.0892 52.7631L34.1462 52.1807L34.1323 50.5443C34.1323 49.1299 34.1601 48.9219 34.3542 48.9219C35.006 48.9219 35.7687 48.5336 36.4204 47.8818C37.2108 47.1053 37.4604 46.4674 37.4604 45.2887V44.5121L39.2354 44.4566C40.8579 44.415 41.0659 44.3734 41.9257 43.9713C43.2015 43.375 44.0196 42.5846 44.6437 41.3227L45.1567 40.2688L45.1983 35.7203L45.2399 31.1719H46.0026C46.6267 31.1719 46.8208 31.1164 47.0981 30.8252L47.4448 30.4924V21.1875V11.8826L47.0981 11.5498C46.8208 11.2586 46.6267 11.2031 46.0026 11.2031H45.2538L45.1983 7.76407L45.1567 4.325L44.6437 3.2711C44.0196 2.00919 43.2153 1.23262 41.9257 0.622467L40.9966 0.178719L29.9722 0.150986C23.6071 0.137115 18.7259 0.192581 18.4069 0.261917ZM40.7054 2.49454C41.4681 2.71641 42.619 3.86739 42.8409 4.63008C42.9519 5.0045 43.0073 6.25254 43.0073 8.20782V11.2031H41.8979H40.7886V8.22168C40.7886 5.22637 40.7886 5.22637 40.4419 4.89356L40.1091 4.54688H29.6948H19.2806L18.9478 4.89356C18.6011 5.22637 18.6011 5.22637 18.6011 8.22168V11.2031H17.4917H16.3823V8.20782C16.3823 6.25254 16.4378 5.0045 16.5487 4.63008C16.7567 3.92286 17.9216 2.73028 18.6011 2.50841C19.3222 2.28653 39.9288 2.27266 40.7054 2.49454ZM38.5698 9.10918V11.4527L38.1538 11.6191C37.5714 11.8549 36.7116 12.8672 36.5175 13.5328C36.2817 14.2955 36.2817 28.0795 36.5175 28.8422C36.7116 29.5078 37.5714 30.5201 38.1538 30.7559L38.5698 30.9223V33.2658V35.6094H29.6948H20.8198V33.2658V30.9223L21.2358 30.7559C21.8183 30.5201 22.678 29.5078 22.8722 28.8422C23.1079 28.0795 23.1079 14.2955 22.8722 13.5328C22.678 12.8672 21.8183 11.8549 21.2358 11.6191L20.8198 11.4527V9.10918V6.76563H29.6948H38.5698V9.10918ZM20.4731 13.7686L20.8198 14.1014V21.1875V28.2736L20.4731 28.6064C20.1403 28.9531 20.1403 28.9531 17.145 28.9531H14.1636V21.1875V13.4219H17.145C20.1403 13.4219 20.1403 13.4219 20.4731 13.7686ZM45.2261 21.1875V28.9531H42.2446C39.2493 28.9531 39.2493 28.9531 38.9165 28.6064L38.5698 28.2736V21.1875V14.1014L38.9165 13.7686C39.2493 13.4219 39.2493 13.4219 42.2446 13.4219H45.2261V21.1875ZM18.6011 34.1533C18.6011 37.1486 18.6011 37.1486 18.9478 37.4814L19.2806 37.8281H29.6948H40.1091L40.4419 37.4814C40.7886 37.1486 40.7886 37.1486 40.7886 34.1533V31.1719H41.8979H43.0073V35.2766C43.0073 38.1055 42.9519 39.5754 42.8409 39.9637C42.619 40.7264 41.4681 41.8773 40.7054 42.0992C39.8872 42.335 19.5024 42.335 18.6843 42.0992C17.9216 41.8773 16.7706 40.7264 16.5487 39.9637C16.4378 39.5754 16.3823 38.1055 16.3823 35.2766V31.1719H17.4917H18.6011V34.1533ZM35.2417 45.2471C35.2417 45.885 35.1862 46.0791 34.895 46.3564L34.5622 46.7031H29.6948H24.8274L24.4946 46.3564C24.2034 46.0791 24.1479 45.885 24.1479 45.2471V44.4844H29.6948H35.2417V45.2471ZM31.9136 50.1561V51.4041L31.4005 51.307C31.1093 51.2516 30.3466 51.21 29.6948 51.21C29.0431 51.21 28.2804 51.2516 28.003 51.307L27.4761 51.4041V50.1561V48.9219H29.6948H31.9136V50.1561ZM31.1647 53.5119C33.4112 53.9141 35.6161 55.6059 36.6284 57.7137C37.3495 59.2391 37.4604 59.974 37.4604 63.5795V66.6719H35.2417H33.0229V65.5625V64.4531H33.7856C34.4374 64.4531 34.6177 64.3977 34.9228 64.0926C35.2694 63.7459 35.2694 63.732 35.214 61.7768C35.1724 59.9186 35.1446 59.7521 34.7286 58.8785C34.1185 57.5889 33.3419 56.7846 32.08 56.1605C31.0815 55.6752 30.9567 55.6475 29.6948 55.6475C28.4329 55.6475 28.3081 55.6752 27.3097 56.1605C26.0478 56.7846 25.2712 57.5889 24.661 58.8785C24.245 59.7521 24.2173 59.9186 24.1757 61.7768C24.1202 63.732 24.1202 63.7459 24.4669 64.0926C24.772 64.3977 24.9522 64.4531 25.604 64.4531H26.3667V65.5625V66.6719H24.1479H21.9292V63.5795C21.9292 61.8738 21.9985 60.1127 22.0817 59.6551C22.4007 57.8939 23.5239 56.1189 24.9938 54.9957C26.8104 53.609 28.9321 53.1098 31.1647 53.5119ZM20.806 56.6459C19.9739 58.31 19.8214 59.0588 19.7521 61.9293L19.6827 64.4531H18.5872H17.4917V60.0156V55.5781H19.4192H21.3468L20.806 56.6459ZM41.8979 60.0156V64.4531H40.8024H39.7069L39.6376 61.9293C39.5683 59.0727 39.4296 58.3516 38.5837 56.6459L38.0567 55.5781H39.9704H41.8979V60.0156Z" fill="#4C4C4C"/>
</svg>
