<svg width="70" height="43" viewBox="0 0 70 43" fill="none" xmlns="http://www.w3.org/2000/svg">
<path d="M48.354 0.768528C48.1599 0.948803 48.0073 1.24001 48.0073 1.40642C48.0073 1.55896 48.354 2.97341 48.7839 4.5404C49.2138 6.09353 49.5327 7.39705 49.505 7.41091C49.4079 7.49411 29.7858 11.3769 29.7442 11.3215C29.6749 11.2521 28.5933 8.42321 28.5933 8.31228C28.5933 8.25681 29.0093 8.14587 29.5085 8.06267C30.604 7.86853 31.5054 7.52185 32.4761 6.92556C33.4884 6.30154 34.6671 5.96872 35.8874 5.96872H36.9136V4.84548V3.70837L35.4991 3.77771C33.8489 3.86091 32.7534 4.17986 31.3667 4.99802C29.0093 6.38474 26.6519 6.30154 24.2944 4.72068C23.7259 4.34626 23.2128 4.02732 23.1573 4.02732C23.0603 4.02732 21.937 5.60818 21.937 5.74685C21.937 6.02419 24.8353 7.66052 25.6257 7.82693C26.0556 7.924 26.0972 8.0072 26.9015 10.1427L27.7335 12.3615L27.1649 12.8885C25.5286 14.3861 21.2991 18.0748 21.1604 18.1302C21.0772 18.158 20.6612 17.9916 20.2591 17.742C19.2884 17.1734 17.7769 16.5771 16.5843 16.272C15.253 15.9531 11.9526 15.9392 10.6491 16.272C8.11143 16.9099 6.10068 18.047 4.24248 19.8914C2.39814 21.7496 1.26104 23.7742 0.623145 26.298C0.290332 27.6154 0.290332 30.9158 0.623145 32.2332C1.24717 34.7154 2.39814 36.7677 4.18701 38.5705C6.5999 41.025 9.48428 42.3424 12.8679 42.5365C19.5796 42.9248 25.5841 38.1545 26.6935 31.5259L26.8737 30.4443L28.0802 30.4027C29.037 30.375 29.2866 30.4027 29.2866 30.5552C29.2866 31.0129 30.2989 32.7324 30.8952 33.2732C31.4776 33.814 33.0169 34.6738 33.419 34.6738C33.5438 34.6738 33.5854 35.0066 33.5854 35.8525V37.0312H31.3667H29.1479V38.1406V39.25H32.1294C35.1247 39.25 35.1247 39.25 35.4575 38.9033C35.7903 38.5843 35.8042 38.5011 35.8042 36.6152C35.8042 35.0621 35.8458 34.6738 35.9983 34.6738C36.0954 34.6738 36.6224 34.4519 37.1493 34.1884C38.3419 33.5922 39.1462 32.7601 39.7286 31.5121C40.1308 30.6662 40.1724 30.4582 40.1724 29.2656C40.1724 28.073 40.1308 27.8511 39.7425 27.0468C39.2155 25.9375 38.6331 25.258 37.7317 24.6617L37.0384 24.2179L37.704 23.5662C39.9505 21.3336 50.5866 11.5433 50.6698 11.6265C50.7253 11.682 50.8224 11.9316 50.864 12.1812C50.9472 12.625 50.9472 12.625 50.3786 12.625C49.9487 12.625 49.713 12.7082 49.4634 12.9717C49.0335 13.3877 49.0335 13.4847 49.4772 15.5648C49.8378 17.215 49.8378 17.2705 49.5882 17.4369C49.4356 17.5478 48.8532 17.9361 48.2708 18.3105C44.5267 20.7511 42.2247 25.466 42.502 30.0976C42.7101 33.4119 44.0413 36.2963 46.4681 38.6953C48.2708 40.4842 50.3231 41.6351 52.8054 42.2592C54.1228 42.592 57.4231 42.592 58.7405 42.2592C61.306 41.6213 63.2335 40.5258 65.1333 38.6259C67.0331 36.7261 68.1286 34.7986 68.7665 32.2332C69.0993 30.9158 69.0993 27.6154 68.7665 26.298C67.7681 22.332 65.1749 19.0732 61.5972 17.3398C60.1966 16.6742 59.3784 16.4107 57.5896 16.1056L56.2583 15.8838L55.9671 14.5109C55.5927 12.8052 55.4263 12.625 54.1644 12.625H53.2907L53.1243 12.0287C53.0411 11.7097 52.4448 9.51872 51.8069 7.17517C51.169 4.83162 50.6421 2.84861 50.6421 2.77927C50.6421 2.69607 51.9456 2.6406 53.9702 2.6406H57.3122L57.645 2.98728C58.1026 3.43103 58.1026 4.06892 57.645 4.51267C57.3261 4.84548 57.2429 4.85935 55.4263 4.85935H53.5542V5.96872V7.0781H55.4401C57.7976 7.0781 58.269 6.95329 59.1704 6.03806C60.155 5.06736 60.4323 4.02732 60.044 2.7238C59.8222 1.96111 58.6712 0.810131 57.9085 0.588253C57.5063 0.477318 55.9948 0.421848 53.0134 0.421848H48.6868L48.354 0.768528ZM49.1167 9.7822C49.1167 9.80993 45.8024 12.9439 41.7532 16.7297C36.4421 21.6802 34.3481 23.5662 34.2788 23.4275C34.0847 23.0808 30.5347 13.5541 30.5763 13.5125C30.604 13.4847 34.7642 12.625 39.8396 11.6127C44.9011 10.5865 49.0612 9.7406 49.089 9.72673C49.1028 9.72673 49.1167 9.7406 49.1167 9.7822ZM28.9815 15.6758L29.2589 16.4523L22.3392 22.3043L15.4194 28.1701L14.3517 28.1285L13.2978 28.0869L20.897 21.389C25.071 17.7004 28.5378 14.7328 28.5933 14.8021C28.6487 14.8576 28.829 15.2597 28.9815 15.6758ZM55.1351 21.2365C55.8839 24.7449 56.5356 27.7402 56.5634 27.8927C56.6327 28.1424 56.5495 28.1562 55.5372 28.1562H54.4417L53.0688 21.7357C52.32 18.2134 51.6683 15.2181 51.6405 15.0795C51.5851 14.8715 51.696 14.8437 52.6667 14.8437H53.7622L55.1351 21.2365ZM15.364 18.3244C16.4733 18.5185 18.1513 19.0732 18.7892 19.4615L19.33 19.7943L18.4563 20.557L17.5966 21.3336L17.028 21.084C13.7692 19.6972 9.92803 20.4599 7.37646 23.0254C3.90967 26.4922 3.88193 32.0252 7.30713 35.4365C10.5798 38.6953 15.2946 39.042 18.9833 36.2963C20.5503 35.1314 21.8538 33.0929 22.2282 31.2347L22.4085 30.375H23.5456H24.6827L24.5024 31.3041C23.92 34.2855 22.1728 36.8925 19.6073 38.5705C17.7491 39.7908 16.0296 40.29 13.6167 40.29C11.2038 40.29 9.48428 39.7908 7.62607 38.5705C4.60303 36.5875 2.80029 33.4951 2.56455 29.8758C2.1624 23.6494 7.18232 18.2828 13.4919 18.1857C14.0604 18.1857 14.9063 18.2412 15.364 18.3244ZM59.5171 18.8652C61.7774 19.6834 63.7604 21.2504 65.0778 23.275C66.2981 25.147 66.7974 26.8527 66.7974 29.2656C66.7974 32.3996 65.7573 34.9234 63.594 37.0867C61.4308 39.25 58.9069 40.29 55.7729 40.29C53.3601 40.29 51.6405 39.7908 49.7823 38.5705C47.3556 36.9896 45.7886 34.7847 44.9843 31.831C44.6653 30.6523 44.6792 27.8511 45.012 26.5615C45.6915 23.9267 47.3972 21.5277 49.6437 20.0439C50.3509 19.5724 50.3925 19.6002 50.6282 20.8898L50.7946 21.7912L49.713 22.859C49.1167 23.4552 48.4233 24.2873 48.1737 24.7172C46.1075 28.2256 46.6345 32.6215 49.4634 35.4365C51.169 37.1283 52.9856 37.9603 55.2876 38.099C57.8114 38.2377 60.155 37.3502 61.93 35.5752C63.6356 33.8834 64.4677 32.0668 64.6063 29.7509C64.856 25.5076 62.2073 21.9299 57.8669 20.6402L57.2429 20.4599L57.0071 19.3644L56.7714 18.2689L57.5757 18.3521C58.0194 18.4076 58.8931 18.6295 59.5171 18.8652ZM31.2142 21.6248C32.0601 23.899 32.1849 24.3427 32.0046 24.4398C30.9091 25.05 29.8968 26.2703 29.4669 27.4767L29.2173 28.1701L28.0386 28.1285L26.8599 28.0869L26.7628 27.2549C26.6241 26.2287 26.222 24.8558 25.6812 23.6633L25.279 22.748L26.6935 21.5416C27.47 20.8759 28.5378 19.9746 29.0647 19.517C29.5917 19.0732 30.0632 18.7543 30.1187 18.8236C30.1741 18.8791 30.6595 20.141 31.2142 21.6248ZM15.4056 22.8451C15.7106 22.9699 15.5165 23.164 12.7708 25.5769C11.1345 27.0191 9.66455 28.3365 9.49814 28.5306C9.06826 28.9744 9.08213 29.5984 9.52588 30.0283L9.85869 30.375H15.0173H20.1759L20.0788 30.8187C19.9124 31.6924 19.2052 32.9543 18.4286 33.7863C17.5688 34.7293 16.4595 35.381 15.2114 35.7138C11.7308 36.6152 8.09756 34.4103 7.16846 30.8603C6.28096 27.4213 8.43037 23.8158 11.9665 22.8174C12.7569 22.5955 14.7677 22.6093 15.4056 22.8451ZM58.8515 23.3859C60.4046 24.1763 61.7497 25.882 62.2212 27.6709C63.4554 32.4273 58.9347 36.948 54.1782 35.7138C50.6282 34.7847 48.4233 31.1515 49.3247 27.6986C49.4356 27.2549 49.6853 26.5892 49.8794 26.2009C50.2954 25.3967 51.1968 24.3427 51.3354 24.5092C51.3909 24.5646 51.6821 25.7711 51.9733 27.1855C52.3894 29.1963 52.5696 29.8203 52.8192 30.056C53.1104 30.3611 53.2075 30.375 55.7729 30.375C58.3938 30.375 58.4216 30.375 58.7544 30.0283C58.9485 29.848 59.1011 29.5707 59.1011 29.4181C59.1011 29.2656 58.8237 27.8234 58.4771 26.2148C58.1304 24.6062 57.853 23.2334 57.853 23.164C57.853 22.9422 58.0888 22.9976 58.8515 23.3859ZM23.8645 25.0916C24.2112 25.9791 24.5718 27.3519 24.5718 27.8373C24.5718 28.1424 24.5163 28.1562 23.4763 28.1562H22.3808L22.2837 27.5045C22.2282 27.1439 22.0896 26.6031 21.9647 26.298L21.7429 25.7572L22.5749 25.0222C23.0187 24.6062 23.4208 24.2734 23.4624 24.2734C23.504 24.2734 23.6843 24.634 23.8645 25.0916ZM35.721 26.1039C36.4837 26.3258 37.6347 27.4767 37.8565 28.2394C38.2032 29.4043 37.9813 30.4582 37.2187 31.3457C36.8165 31.831 36.137 32.3164 35.8735 32.3164C35.8319 32.3164 35.8042 31.3734 35.8042 30.2363V28.1562H34.6948H33.5854V30.2363C33.5854 31.3734 33.5577 32.3164 33.5161 32.3164C33.2526 32.3164 32.5731 31.831 32.171 31.3457C31.0062 30.0006 31.1032 28.2672 32.4067 26.9775C33.3774 25.9929 34.4175 25.7295 35.721 26.1039ZM20.0511 27.5461C20.2452 28.0453 20.1481 28.1562 19.5103 28.1562H18.8862L19.33 27.7402C19.8569 27.2687 19.9401 27.241 20.0511 27.5461Z" fill="#4C4C4C"/>
</svg>
