<svg width="70" height="69" viewBox="0 0 70 69" fill="none" xmlns="http://www.w3.org/2000/svg">
<path d="M30.604 0.456055C30.2989 0.747269 30.2573 0.913673 30.2573 1.69024C30.2573 2.52227 30.2296 2.60547 29.9522 2.66094C29.772 2.70254 28.9815 2.86895 28.1772 3.02148C27.3729 3.18789 26.5825 3.3543 26.4022 3.3959C26.1526 3.45137 26.0556 3.38203 25.8753 2.93829C25.5563 2.16172 25.2929 1.91211 24.7659 1.91211C24.1003 1.91211 18.4841 4.31113 18.0958 4.76875C17.7353 5.1709 17.6937 5.57305 17.9849 6.07227C18.0958 6.26641 18.179 6.51602 18.1929 6.64082C18.1929 6.80723 15.8216 8.56836 15.2392 8.81797C15.1837 8.8457 14.8925 8.65156 14.5874 8.37422C13.589 7.47285 13.5058 7.51445 10.6075 10.4127C7.70928 13.3109 7.66768 13.3941 8.56904 14.3926C8.84639 14.6977 9.04053 14.9889 9.01279 15.0443C8.76318 15.6268 7.00205 17.998 6.83564 17.998C6.71084 17.9842 6.46123 17.901 6.26709 17.79C5.76787 17.4988 5.36572 17.5404 4.96357 17.8871C4.54756 18.2615 2.10693 23.8777 2.10693 24.4463C2.10693 25.0287 2.35654 25.3477 3.03604 25.6389C3.57686 25.8607 3.64619 25.9578 3.57686 26.2213C3.53525 26.3877 3.36885 27.1781 3.21631 27.9824C3.0499 28.7867 2.89736 29.5771 2.85576 29.7436C2.80029 30.0348 2.71709 30.0625 1.88506 30.0625C1.1085 30.0625 0.94209 30.1041 0.650879 30.4092L0.304199 30.742V34.5V38.258L0.650879 38.5908C0.94209 38.8959 1.1085 38.9375 1.88506 38.9375C2.71709 38.9375 2.80029 38.9652 2.85576 39.2426C2.89736 39.4229 3.0499 40.2133 3.21631 41.0176C3.36885 41.8219 3.53525 42.6123 3.57686 42.7926C3.64619 43.0561 3.57686 43.1393 3.13311 43.3195C2.35654 43.6385 2.10693 43.902 2.10693 44.4289C2.10693 45.0945 4.50596 50.7107 4.96357 51.099C5.36572 51.4596 5.76787 51.5012 6.26709 51.21C6.46123 51.099 6.71084 51.0158 6.83564 51.002C7.00205 51.002 8.76318 53.3732 9.01279 53.9557C9.04053 54.0111 8.84639 54.3023 8.56904 54.6074C7.66768 55.6059 7.70928 55.6891 10.6075 58.5873C13.5058 61.4855 13.589 61.5271 14.5874 60.6258C14.8925 60.3484 15.1837 60.1543 15.2392 60.182C15.8216 60.4316 18.1929 62.1928 18.1929 62.3592C18.179 62.484 18.0958 62.7336 17.9849 62.9277C17.6937 63.427 17.7353 63.8291 18.0958 64.2313C18.4841 64.6889 24.1003 67.0879 24.7659 67.0879C25.2929 67.0879 25.5563 66.8383 25.8753 66.0617C26.0556 65.618 26.1526 65.5486 26.4022 65.6041C26.5825 65.6457 27.3729 65.8121 28.1772 65.9646C28.9815 66.1311 29.772 66.2975 29.9522 66.3391C30.2296 66.3945 30.2573 66.4777 30.2573 67.3098C30.2573 68.0863 30.2989 68.2527 30.604 68.5439L30.9368 68.8906H34.6948H38.4528L38.7856 68.5439C39.0907 68.2527 39.1323 68.0863 39.1323 67.3098C39.1323 66.4777 39.1601 66.3945 39.4513 66.3391C39.6177 66.2975 40.3804 66.1449 41.1569 65.9924C41.9196 65.8398 42.7101 65.6734 42.9181 65.6318C43.2509 65.5348 43.3202 65.5902 43.5144 66.0617C43.8333 66.8521 44.0968 67.0879 44.6376 67.0879C45.3032 67.0879 50.8917 64.6889 51.3077 64.2313C51.6544 63.8291 51.696 63.427 51.4048 62.9277C51.2938 62.7336 51.2106 62.484 51.1968 62.3592C51.1968 62.1928 53.5681 60.4316 54.1505 60.182C54.206 60.1543 54.4972 60.3484 54.8022 60.6258C55.8007 61.5271 55.8839 61.4855 58.7821 58.5873C61.6804 55.6891 61.722 55.6059 60.8206 54.6074C60.5433 54.3023 60.3491 54.0111 60.3769 53.9557C60.6265 53.3732 62.3876 51.002 62.554 51.002C62.6788 51.0158 62.9284 51.099 63.1226 51.21C63.6218 51.5012 64.0239 51.4596 64.4261 51.1129C64.8837 50.6969 67.2827 45.1084 67.2827 44.4428C67.2827 43.902 67.047 43.6385 66.2565 43.3195C65.8128 43.1393 65.7435 43.0561 65.8128 42.7926C65.8544 42.6123 66.0208 41.8219 66.1733 41.0176C66.3397 40.2133 66.4923 39.4229 66.5339 39.2426C66.5894 38.9652 66.6726 38.9375 67.5046 38.9375C68.2812 38.9375 68.4476 38.8959 68.7388 38.5908L69.0854 38.258V34.5V30.742L68.7388 30.4092C68.4476 30.1041 68.2812 30.0625 67.5046 30.0625C66.6726 30.0625 66.5894 30.0348 66.5339 29.7436C66.4923 29.5771 66.3397 28.7867 66.1733 27.9824C66.0208 27.1781 65.8544 26.3877 65.8128 26.2213C65.7435 25.9578 65.8128 25.8607 66.3536 25.6389C67.0331 25.3477 67.2827 25.0287 67.2827 24.4602C67.2827 23.8916 64.8282 18.2477 64.4261 17.8871C64.0239 17.5404 63.6218 17.4988 63.1226 17.79C62.9284 17.901 62.6788 17.9842 62.554 17.998C62.3876 17.998 60.6265 15.6268 60.3769 15.0443C60.3491 14.9889 60.5433 14.6977 60.8206 14.3926C61.722 13.3941 61.6804 13.3109 58.7821 10.4127C55.8839 7.51445 55.8007 7.47285 54.8022 8.37422C54.4972 8.65156 54.206 8.8457 54.1505 8.81797C53.5681 8.56836 51.1968 6.80723 51.1968 6.64082C51.2106 6.51602 51.2938 6.26641 51.4048 6.07227C51.696 5.57305 51.6544 5.1709 51.3077 4.76875C50.9056 4.31113 45.2894 1.91211 44.6237 1.91211C44.0968 1.91211 43.8333 2.16172 43.5144 2.93829C43.3202 3.40977 43.2509 3.46523 42.9181 3.36816C42.7101 3.32656 41.9196 3.16016 41.1569 3.00762C40.3804 2.85508 39.6177 2.70254 39.4513 2.66094C39.1601 2.60547 39.1323 2.52227 39.1323 1.69024C39.1323 0.913673 39.0907 0.747269 38.7856 0.456055L38.4528 0.109375H34.6948H30.9368L30.604 0.456055ZM36.9136 3.10469C36.9136 4.43594 37.08 4.57461 39.1046 4.87969C39.8673 5.00449 41.3095 5.2957 42.294 5.53144C44.0413 5.9752 44.1106 5.9752 44.4712 5.73945C44.6792 5.60078 44.9427 5.26797 45.0536 4.99063C45.1646 4.71328 45.2755 4.46368 45.2894 4.44981C45.331 4.4082 48.881 5.91973 48.9642 6.0168C49.0058 6.04453 48.9226 6.29414 48.7978 6.55762C48.3263 7.52832 48.5759 7.94434 50.1845 8.87344C50.7808 9.22012 51.8624 9.95508 52.5835 10.4959C54.1366 11.6607 54.511 11.7301 55.2876 11.0367L55.7868 10.6068L57.1874 12.0074L58.588 13.408L58.1581 13.9072C57.4647 14.6838 57.5341 15.0721 58.6851 16.5975C59.212 17.3047 59.947 18.3863 60.3075 18.9965C60.9731 20.1336 61.4585 20.6328 61.8745 20.6328C62.0132 20.6328 62.346 20.5357 62.6372 20.4109C62.9146 20.3 63.178 20.2168 63.1919 20.2445C63.3583 20.4109 64.7728 23.8916 64.6896 23.9193C64.1626 24.0996 63.5802 24.5156 63.3999 24.8207C63.2196 25.1535 63.2196 25.2783 63.4415 26.0688C63.7188 27.0672 64.3151 29.9377 64.4399 30.95C64.5786 31.9484 64.9669 32.2812 66.0347 32.2812H66.8667V34.5V36.7188H66.0347C64.9669 36.7188 64.5786 37.0516 64.4399 38.05C64.3151 39.0623 63.7188 41.9328 63.4415 42.9312C63.2196 43.7217 63.2196 43.8465 63.3999 44.1793C63.5802 44.4844 64.1626 44.9004 64.6896 45.0807C64.7728 45.1084 63.3583 48.5891 63.1919 48.7555C63.178 48.7832 62.9146 48.7 62.6372 48.5891C62.346 48.4643 62.0132 48.3672 61.8745 48.3672C61.4585 48.3672 60.9731 48.8664 60.3075 50.0035C59.947 50.6137 59.212 51.6953 58.6851 52.4025C57.5341 53.9279 57.4647 54.3162 58.1581 55.0928L58.588 55.592L57.1874 56.9926L55.7868 58.3932L55.2876 57.9633C54.511 57.2699 54.1366 57.3531 52.5974 58.4902C51.8901 59.0172 50.8085 59.7521 50.1983 60.1127C48.5759 61.0695 48.3263 61.4717 48.7978 62.4424C48.9226 62.7059 49.0058 62.9555 48.9642 62.9832C48.7978 63.1635 45.3032 64.5779 45.2755 64.4947C45.0952 63.9678 44.6792 63.3854 44.3741 63.2051C44.0413 63.0248 43.9165 63.0248 43.1261 63.2467C42.1276 63.524 39.2571 64.1203 38.2448 64.2451C37.2464 64.3838 36.9136 64.7721 36.9136 65.8398V66.6719H34.6948H32.4761V65.8398C32.4761 64.7721 32.1433 64.3838 31.1448 64.2451C29.9245 64.0787 28.9677 63.8984 27.1095 63.4547C25.3483 63.0248 25.279 63.0248 24.9185 63.2605C24.7104 63.3992 24.447 63.732 24.336 64.0094C24.2251 64.2867 24.1142 64.5363 24.1003 64.5502C24.0587 64.5918 20.5087 63.0803 20.4255 62.9832C20.3839 62.9555 20.4671 62.7059 20.5919 62.4424C21.0634 61.4717 20.8138 61.0695 19.1913 60.1127C18.5812 59.7521 17.4995 59.0172 16.7923 58.4902C15.2669 57.3393 14.8786 57.2699 14.1021 57.9633L13.6028 58.3932L12.2022 56.9926L10.8017 55.592L11.2315 55.0928C11.9249 54.3162 11.8556 53.9279 10.7046 52.4025C10.1776 51.6953 9.44268 50.6137 9.08213 50.0035C8.12529 48.3811 7.72314 48.1314 6.75244 48.6029C6.48896 48.7277 6.23936 48.8109 6.21162 48.7693C6.11455 48.6861 4.60303 45.1361 4.64463 45.0945C4.6585 45.0807 4.90811 44.9697 5.18545 44.8588C5.46279 44.7479 5.79561 44.4844 5.93428 44.2764C6.17002 43.9158 6.17002 43.8465 5.72627 42.0992C5.49053 41.1146 5.19932 39.6725 5.07451 38.9098C4.76943 36.8852 4.63076 36.7188 3.29951 36.7188H2.52295V34.5V32.2812H3.35498C4.42275 32.2812 4.81104 31.9484 4.94971 30.95C5.07451 29.9654 5.65693 27.0949 5.94814 26.0688C6.17002 25.2783 6.17002 25.1535 5.98975 24.8207C5.80947 24.5156 5.22705 24.0996 4.7001 23.9193C4.61689 23.8916 6.03135 20.3971 6.21162 20.2307C6.23936 20.1891 6.48896 20.2723 6.75244 20.3971C7.72314 20.8686 8.12529 20.6189 9.08213 18.9965C9.44268 18.3863 10.1776 17.3047 10.7046 16.5975C11.8417 15.0582 11.9249 14.6838 11.2315 13.9072L10.8017 13.408L12.2022 12.0074L13.6028 10.6068L14.1021 11.0367C14.8786 11.7301 15.2669 11.6607 16.7646 10.5375C17.4579 10.0244 18.4425 9.35879 18.9556 9.05371C20.1204 8.37422 20.8276 7.72246 20.8276 7.33418C20.8276 7.18164 20.7167 6.83496 20.5919 6.55762C20.4671 6.29414 20.3839 6.04453 20.4255 6.0168C20.5919 5.83652 24.0864 4.42207 24.1142 4.50527C24.2944 5.03223 24.7104 5.61465 25.0155 5.79492C25.3483 5.9752 25.4731 5.9752 26.2636 5.75332C27.262 5.47598 30.1325 4.87969 31.1448 4.75488C32.1433 4.61621 32.4761 4.22793 32.4761 3.16016V2.32812H34.6948H36.9136V3.10469Z" fill="#4C4C4C"/>
<path d="M33.5855 9.16465C32.906 9.38652 31.7411 10.5791 31.5331 11.2863C31.1448 12.5898 31.4222 13.6299 32.4067 14.6006C33.114 15.3217 33.8212 15.6406 34.6948 15.6406C35.5685 15.6406 36.2757 15.3217 36.9829 14.6006C38.3419 13.2555 38.3835 11.5221 37.0939 10.0938C36.1925 9.09531 34.9028 8.74863 33.5855 9.16465ZM35.4575 11.5498C35.6794 11.7578 35.8042 12.049 35.8042 12.3125C35.8042 12.576 35.6794 12.8672 35.4575 13.0752C34.778 13.7686 33.5855 13.2832 33.5855 12.3125C33.5855 11.7439 34.1263 11.2031 34.6948 11.2031C34.9583 11.2031 35.2495 11.3279 35.4575 11.5498Z" fill="#4C4C4C"/>
<path d="M26.0971 10.4959C13.1035 15.1691 6.11444 29.5217 10.4826 42.543C11.4256 45.3164 12.1328 46.5645 12.7984 46.5645C13.1174 46.5645 26.7072 41.3781 27.1648 41.073C27.7611 40.6986 27.7195 40.2826 26.943 38.7572C26.1525 37.2041 25.8197 35.9422 25.8197 34.5C25.8197 30.7143 28.3435 27.2475 32.0045 26.0549C32.8781 25.7637 33.308 25.3754 33.308 24.8623C33.308 24.5711 29.342 11.4805 28.9953 10.6068C28.6625 9.80254 28.0939 9.77481 26.0971 10.4959ZM28.9953 18.109C29.9521 21.2152 30.7426 23.8223 30.7703 23.9055C30.8119 24.0025 30.3682 24.2938 29.7996 24.5711C24.5578 27.0811 22.2558 33.2936 24.4885 38.8404L24.8213 39.6447L24.5301 39.7834C24.3637 39.8527 21.7982 40.8373 18.8445 41.9744L13.4502 44.0406L13.1174 43.2779C12.9371 42.8619 12.5904 41.8912 12.3685 41.1146C8.98495 29.5217 14.9201 17.3602 26.1664 12.8117C26.624 12.6314 27.0678 12.465 27.1371 12.465C27.2203 12.465 28.0523 15.0027 28.9953 18.109Z" fill="#4C4C4C"/>
<path d="M40.7825 10.0938C40.6577 10.1631 40.4913 10.3988 40.3942 10.6068C40.0614 11.4527 36.0815 24.5711 36.0815 24.8484C36.0815 25.3477 36.4698 25.7359 37.2325 25.9717C39.5761 26.7482 41.5868 28.44 42.5853 30.5063C43.9442 33.3074 43.9026 35.9006 42.4466 38.7434C41.67 40.2688 41.6284 40.6986 42.2247 41.073C42.6407 41.3365 56.2583 46.5645 56.5356 46.5645C57.0349 46.5645 57.3538 46.2039 57.9224 44.9975C61.7913 36.7465 60.6403 26.4848 54.9964 19.0797C54.0396 17.8316 51.8485 15.5852 50.6421 14.6145C48.4095 12.8117 45.7886 11.3557 43.1815 10.4543C41.7116 9.94122 41.1708 9.85801 40.7825 10.0938ZM43.5421 12.9504C46.371 14.1014 48.9226 15.8348 51.1968 18.1367C54.83 21.7977 57.1042 26.457 57.7837 31.5602C58.1165 34.0979 58.0194 36.5939 57.4925 39.2842C57.2567 40.4213 56.4524 43.0145 56.1058 43.6662L55.9255 44.0406L50.545 41.9744C47.5913 40.8373 45.0259 39.8527 44.8595 39.7834L44.5683 39.6447L44.9011 38.8404C47.1337 33.2936 44.8595 27.1643 39.6038 24.5572C39.0353 24.2799 38.5915 23.9887 38.6192 23.9055C38.647 23.8223 39.4374 21.2152 40.3942 18.109C41.3372 15.0027 42.1692 12.4512 42.2247 12.4512C42.294 12.4512 42.8765 12.673 43.5421 12.9504Z" fill="#4C4C4C"/>
<path d="M33.0448 28.0659C29.5364 29.0088 27.3592 32.6559 28.2467 36.095C29.1758 39.645 32.809 41.8498 36.2897 40.9485C39.8397 40.0194 42.0446 36.3862 41.1432 32.9332C40.2141 29.3416 36.5254 27.1229 33.0448 28.0659ZM36.7889 30.6313C37.718 31.1305 38.1479 31.5743 38.6887 32.6143C38.9938 33.2106 39.0493 33.5018 39.0493 34.5002C39.0631 35.5819 39.0215 35.7483 38.5916 36.5526C38.0647 37.5233 37.6209 37.9393 36.5809 38.494C35.9846 38.7991 35.6934 38.8545 34.695 38.8545C33.6965 38.8545 33.4053 38.7991 32.809 38.494C31.769 37.9393 31.3252 37.5233 30.7983 36.5526C30.3684 35.7483 30.3268 35.5819 30.3407 34.5002C30.3407 33.1135 30.6735 32.2815 31.5748 31.3801C32.9616 29.9934 35.0278 29.7022 36.7889 30.6313Z" fill="#4C4C4C"/>
<path d="M28.3298 41.808C28.1356 41.9744 27.1233 44.4289 25.3345 49.0883C23.8507 52.9572 22.6304 56.216 22.6304 56.3408C22.6304 56.8401 22.9909 57.159 24.1974 57.7276C30.6456 60.7506 38.8134 60.7506 45.1784 57.7414C46.3987 57.159 46.7593 56.8401 46.7593 56.3408C46.7593 56.216 45.539 52.9572 44.0552 49.0883C42.2663 44.4289 41.254 41.9744 41.0599 41.808C40.63 41.4613 40.3249 41.5168 39.2155 42.1131C37.6624 42.9729 36.4144 43.2918 34.6948 43.2918C32.9753 43.2918 31.7272 42.9729 30.1741 42.1131C29.0647 41.5168 28.7597 41.4613 28.3298 41.808ZM33.3636 45.469C35.0692 45.6908 36.8442 45.4828 38.4667 44.9004C39.1046 44.6647 39.6731 44.4705 39.7425 44.4428C39.8118 44.4289 40.8519 46.9666 42.0444 50.0729L44.2354 55.7307L43.861 55.911C42.4743 56.6182 39.4097 57.4086 36.9829 57.6721C33.4884 58.0465 28.8567 57.3809 25.9169 56.0774L25.1542 55.7446L27.2204 50.3502C28.3575 47.3965 29.3421 44.8311 29.4114 44.6785L29.5501 44.3735L30.7843 44.8449C31.5608 45.1362 32.5315 45.3719 33.3636 45.469Z" fill="#4C4C4C"/>
<path d="M16.9448 47.993C16.2653 48.2148 15.1005 49.4074 14.8925 50.1146C14.5042 51.4182 14.7816 52.4582 15.7661 53.4289C17.1667 54.8434 18.9417 54.8434 20.3423 53.4289C21.7013 52.0838 21.7429 50.3504 20.4532 48.9221C19.5519 47.9236 18.2622 47.577 16.9448 47.993ZM18.8169 50.3781C19.5103 51.0576 19.0249 52.2502 18.0542 52.2502C17.7907 52.2502 17.4995 52.1254 17.2915 51.9035C17.0696 51.6955 16.9448 51.4043 16.9448 51.1408C16.9448 50.8773 17.0696 50.5861 17.2915 50.3781C17.4995 50.1563 17.7907 50.0314 18.0542 50.0314C18.3177 50.0314 18.6089 50.1563 18.8169 50.3781Z" fill="#4C4C4C"/>
<path d="M50.2261 47.993C49.5466 48.2148 48.3817 49.4074 48.1737 50.1146C47.7855 51.4182 48.0628 52.4582 49.0474 53.4289C50.448 54.8434 52.223 54.8434 53.6235 53.4289C54.9825 52.0838 55.0241 50.3504 53.7345 48.9221C52.8331 47.9236 51.5435 47.577 50.2261 47.993ZM52.0982 50.3781C52.7915 51.0576 52.3062 52.2502 51.3355 52.2502C50.7669 52.2502 50.2261 51.7094 50.2261 51.1408C50.2261 50.5723 50.7669 50.0314 51.3355 50.0314C51.5989 50.0314 51.8901 50.1563 52.0982 50.3781Z" fill="#4C4C4C"/>
</svg>
