<svg width="70" height="55" viewBox="0 0 70 55" fill="none" xmlns="http://www.w3.org/2000/svg">
<path d="M7.23759 1.08316C4.81083 1.61012 2.43954 3.46832 1.30243 5.72867C-0.4587 9.25094 0.17919 13.2308 2.95263 16.0043C4.47802 17.5297 6.15595 18.3201 8.51337 18.6113C11.9524 19.0273 14.92 20.8439 16.5702 23.5757C17.1526 24.5326 17.9569 26.8068 17.9569 27.5002C17.9569 28.1935 17.1942 30.3429 16.5841 31.383C15.9184 32.5339 14.2128 34.2396 13.0618 34.9052C11.8692 35.5986 10.011 36.2088 8.51337 36.389C6.15595 36.6802 4.47802 37.4707 2.95263 38.9961C-0.528036 42.4767 -0.569638 47.9959 2.86942 51.4211C4.57509 53.1129 6.39169 53.9449 8.69364 54.0836C11.2036 54.2222 13.5472 53.3347 15.3499 51.5597C16.9446 49.9927 17.7351 48.3148 18.0401 45.9158C18.4561 42.4767 20.2727 39.5091 23.0046 37.8589C24.1001 37.1933 26.097 36.5416 27.5946 36.3613C28.2602 36.2781 29.1616 36.0978 29.5915 35.9591C32.2401 35.141 34.5698 32.7974 35.4296 30.0656C35.8595 28.6927 35.8595 26.3076 35.4296 24.9347C34.9997 23.5757 34.2231 22.3138 33.1692 21.2599C31.63 19.7345 29.8966 18.9164 27.5946 18.639C26.097 18.4588 24.1001 17.807 23.0046 17.1414C21.2712 16.1013 19.5794 14.1461 18.886 12.3849C18.4839 11.4004 18.054 9.79176 18.054 9.2648C18.0401 8.36344 17.6102 6.85192 17.0556 5.72867C15.2528 2.16481 11.2036 0.237267 7.23759 1.08316ZM10.7737 3.30191C13.353 3.98141 15.3499 6.17242 15.7104 8.73785C16.4038 13.6468 18.4561 17.0582 21.9229 19.055C22.3806 19.3185 22.7688 19.5543 22.7688 19.5959C22.7688 19.6375 22.4915 19.8455 22.1448 20.0535C21.188 20.6636 20.2589 21.565 19.6487 22.4941C19.3436 22.9517 19.0663 23.3261 19.0247 23.3261C18.9831 23.3261 18.7474 22.9517 18.4839 22.4941C16.487 19.0273 13.0757 16.975 8.16669 16.2816C5.60126 15.9211 3.41025 13.9242 2.73075 11.3449C1.49657 6.60231 6.03114 2.06774 10.7737 3.30191ZM28.5237 21.0519C32.0737 21.981 34.2786 25.6142 33.3772 29.0949C32.6977 31.6742 30.5067 33.6711 27.9413 34.0316C25.9999 34.3089 24.0862 34.8359 22.8104 35.4738C18.7612 37.4707 16.4593 40.9652 15.7104 46.2625C15.3499 48.8279 13.353 51.0189 10.7737 51.6984C6.03114 52.9326 1.49657 48.398 2.73075 43.6554C3.41025 41.0761 5.60126 39.0793 8.16669 38.7187C13.464 37.9699 16.9585 35.6679 18.9554 31.6187C19.5933 30.3429 20.1202 28.4293 20.3976 26.4879C20.9245 22.7021 24.8212 20.0951 28.5237 21.0519Z" fill="#4C4C4C"/>
<path d="M8.13918 5.4375C6.8634 5.77031 5.74015 6.68555 5.15773 7.87813C4.89426 8.44668 4.82492 8.79336 4.82492 9.7502C4.81105 10.8318 4.85265 10.9982 5.28254 11.8025C5.80949 12.7732 6.25324 13.1893 7.29328 13.7439C7.88957 14.049 8.18078 14.1045 9.17922 14.1045C10.1777 14.1045 10.4689 14.049 11.0652 13.7439C12.1052 13.1893 12.5489 12.7732 13.0759 11.8025C13.5058 10.9982 13.5474 10.8318 13.5335 9.7502C13.5335 8.75176 13.478 8.46055 13.173 7.86426C12.6321 6.82422 12.2023 6.38047 11.2732 5.88125C10.3718 5.40977 8.99894 5.20176 8.13918 5.4375ZM10.0528 7.72559C11.4812 8.32188 11.8278 10.1801 10.7185 11.2895C9.16535 12.8564 6.61379 11.4559 7.01594 9.26484C7.26554 7.96133 8.79094 7.18477 10.0528 7.72559Z" fill="#4C4C4C"/>
<path d="M25.8892 23.1875C24.6134 23.5203 23.4902 24.4355 22.9077 25.6281C22.6443 26.1967 22.5749 26.5434 22.5749 27.5002C22.5611 28.5818 22.6027 28.7482 23.0325 29.5525C23.5595 30.5232 24.0032 30.9393 25.0433 31.4939C25.6396 31.799 25.9308 31.8545 26.9292 31.8545C27.9277 31.8545 28.2189 31.799 28.8152 31.4939C29.8552 30.9393 30.2989 30.5232 30.8259 29.5525C31.2558 28.7482 31.2974 28.5818 31.2835 27.5002C31.2835 26.5018 31.228 26.2105 30.923 25.6143C30.3821 24.5742 29.9523 24.1305 29.0232 23.6313C28.1218 23.1598 26.7489 22.9518 25.8892 23.1875ZM27.8028 25.4756C29.2312 26.0719 29.5778 27.9301 28.4685 29.0395C27.5671 29.9408 26.2913 29.9408 25.39 29.0395C23.6704 27.3338 25.5702 24.5326 27.8028 25.4756Z" fill="#4C4C4C"/>
<path d="M8.13918 40.9375C6.8634 41.2703 5.74015 42.1855 5.15773 43.3781C4.89426 43.9467 4.82492 44.2934 4.82492 45.2502C4.81105 46.3318 4.85265 46.4982 5.28254 47.3025C5.80949 48.2732 6.25324 48.6893 7.29328 49.2439C7.88957 49.549 8.18078 49.6045 9.17922 49.6045C10.1777 49.6045 10.4689 49.549 11.0652 49.2439C12.1052 48.6893 12.5489 48.2732 13.0759 47.3025C13.5058 46.4982 13.5474 46.3318 13.5335 45.2502C13.5335 44.2518 13.478 43.9605 13.173 43.3643C12.6321 42.3242 12.2023 41.8805 11.2732 41.3813C10.3718 40.9098 8.99894 40.7018 8.13918 40.9375ZM10.0528 43.2256C11.4812 43.8219 11.8278 45.6801 10.7185 46.7895C9.81711 47.6908 8.54133 47.6908 7.63996 46.7895C5.92043 45.0838 7.82023 42.2826 10.0528 43.2256Z" fill="#4C4C4C"/>
<path d="M40.5188 1.08316C38.0921 1.61012 35.7208 3.46832 34.5837 5.72867C32.8225 9.25094 33.4604 13.2308 36.2339 16.0043C37.7593 17.5297 39.4372 18.3201 41.7946 18.6113C45.2337 19.0273 48.2013 20.8439 49.8515 23.5757C50.4339 24.5326 51.2382 26.8068 51.2382 27.5002C51.2382 28.1935 50.4755 30.3429 49.8653 31.383C49.1997 32.5339 47.494 34.2396 46.3431 34.9052C45.1505 35.5986 43.2923 36.2088 41.7946 36.389C39.4372 36.6802 37.7593 37.4707 36.2339 38.9961C32.7532 42.4767 32.7116 47.9959 36.1507 51.4211C37.8563 53.1129 39.6729 53.9449 41.9749 54.0836C44.4849 54.2222 46.8284 53.3347 48.6311 51.5597C50.2259 49.9927 51.0163 48.3148 51.3214 45.9158C51.7374 42.4767 53.554 39.5091 56.2858 37.8589C57.3813 37.1933 59.3782 36.5416 60.8759 36.3613C61.5415 36.2781 62.4429 36.0978 62.8727 35.9591C65.5214 35.141 67.8511 32.7974 68.7108 30.0656C69.1407 28.6927 69.1407 26.3076 68.7108 24.9347C68.2809 23.5757 67.5044 22.3138 66.4505 21.2599C64.9112 19.7345 63.1778 18.9164 60.8759 18.639C59.3782 18.4588 57.3813 17.807 56.2858 17.1414C54.5524 16.1013 52.8606 14.1461 52.1673 12.3849C51.7651 11.4004 51.3352 9.79176 51.3352 9.2648C51.3214 8.36344 50.8915 6.85192 50.3368 5.72867C48.5341 2.16481 44.4849 0.237267 40.5188 1.08316ZM44.055 3.30191C46.6343 3.98141 48.6311 6.17242 48.9917 8.73785C49.6851 13.6468 51.7374 17.0582 55.2042 19.055C55.6618 19.3185 56.0501 19.5543 56.0501 19.5959C56.0501 19.6375 55.7727 19.8455 55.4261 20.0535C54.4692 20.6636 53.5401 21.565 52.93 22.4941C52.6249 22.9517 52.3475 23.3261 52.3059 23.3261C52.2643 23.3261 52.0286 22.9517 51.7651 22.4941C49.7683 19.0273 46.3569 16.975 41.4479 16.2816C38.8825 15.9211 36.6915 13.9242 36.012 11.3449C34.7778 6.60231 39.3124 2.06774 44.055 3.30191ZM61.805 21.0519C65.355 21.981 67.5599 25.6142 66.6585 29.0949C65.979 31.6742 63.788 33.6711 61.2225 34.0316C59.2811 34.3089 57.3675 34.8359 56.0917 35.4738C52.0425 37.4707 49.7405 40.9652 48.9917 46.2625C48.6311 48.8279 46.6343 51.0189 44.055 51.6984C39.3124 52.9326 34.7778 48.398 36.012 43.6554C36.6915 41.0761 38.8825 39.0793 41.4479 38.7187C46.7452 37.9699 50.2397 35.6679 52.2366 31.6187C52.8745 30.3429 53.4015 28.4293 53.6788 26.4879C54.2058 22.7021 58.1024 20.0951 61.805 21.0519Z" fill="#4C4C4C"/>
<path d="M41.4204 5.4375C40.1446 5.77031 39.0214 6.68555 38.439 7.87813C38.1755 8.44668 38.1062 8.79336 38.1062 9.7502C38.0923 10.8318 38.1339 10.9982 38.5638 11.8025C39.0907 12.7732 39.5345 13.1893 40.5745 13.7439C41.1708 14.049 41.462 14.1045 42.4605 14.1045C43.4589 14.1045 43.7501 14.049 44.3464 13.7439C45.3864 13.1893 45.8302 12.7732 46.3571 11.8025C46.787 10.9982 46.8286 10.8318 46.8148 9.7502C46.8148 8.75176 46.7593 8.46055 46.4542 7.86426C45.9134 6.82422 45.4835 6.38047 44.5544 5.88125C43.653 5.40977 42.2802 5.20176 41.4204 5.4375ZM43.3341 7.72559C44.7624 8.32188 45.1091 10.1801 43.9997 11.2895C42.4466 12.8564 39.895 11.4559 40.2972 9.26484C40.5468 7.96133 42.0722 7.18477 43.3341 7.72559Z" fill="#4C4C4C"/>
<path d="M59.1704 23.1875C57.8946 23.5203 56.7714 24.4355 56.189 25.6281C55.9255 26.1967 55.8562 26.5434 55.8562 27.5002C55.8423 28.5818 55.8839 28.7482 56.3138 29.5525C56.8407 30.5232 57.2845 30.9393 58.3245 31.4939C58.9208 31.799 59.212 31.8545 60.2105 31.8545C61.2089 31.8545 61.5001 31.799 62.0964 31.4939C63.1364 30.9393 63.5802 30.5232 64.1071 29.5525C64.537 28.7482 64.5786 28.5818 64.5648 27.5002C64.5648 26.5018 64.5093 26.2105 64.2042 25.6143C63.6634 24.5742 63.2335 24.1305 62.3044 23.6313C61.403 23.1598 60.0302 22.9518 59.1704 23.1875ZM61.0841 25.4756C62.5124 26.0719 62.8591 27.9301 61.7497 29.0395C60.8484 29.9408 59.5726 29.9408 58.6712 29.0395C56.9517 27.3338 58.8515 24.5326 61.0841 25.4756Z" fill="#4C4C4C"/>
<path d="M41.4204 40.9375C40.1446 41.2703 39.0214 42.1855 38.439 43.3781C38.1755 43.9467 38.1062 44.2934 38.1062 45.2502C38.0923 46.3318 38.1339 46.4982 38.5638 47.3025C39.0907 48.2732 39.5345 48.6893 40.5745 49.2439C41.1708 49.549 41.462 49.6045 42.4605 49.6045C43.4589 49.6045 43.7501 49.549 44.3464 49.2439C45.3864 48.6893 45.8302 48.2732 46.3571 47.3025C46.787 46.4982 46.8286 46.3318 46.8148 45.2502C46.8148 44.2518 46.7593 43.9605 46.4542 43.3643C45.9134 42.3242 45.4835 41.8805 44.5544 41.3813C43.653 40.9098 42.2802 40.7018 41.4204 40.9375ZM43.3341 43.2256C44.7624 43.8219 45.1091 45.6801 43.9997 46.7895C43.0984 47.6908 41.8226 47.6908 40.9212 46.7895C39.2017 45.0838 41.1015 42.2826 43.3341 43.2256Z" fill="#4C4C4C"/>
</svg>
