<svg width="43" height="43" viewBox="0 0 43 43" fill="none" xmlns="http://www.w3.org/2000/svg">
<circle cx="21.5" cy="21.5" r="21.5" fill="black"/>
<path d="M24.7 12.375L16.275 20.775C16.175 20.875 16.1043 20.9833 16.063 21.1C16.021 21.2167 16 21.3417 16 21.475C16 21.6083 16.021 21.7333 16.063 21.85C16.1043 21.9667 16.175 22.075 16.275 22.175L24.7 30.6C24.9333 30.8333 25.225 30.95 25.575 30.95C25.925 30.95 26.225 30.825 26.475 30.575C26.725 30.325 26.85 30.0333 26.85 29.7C26.85 29.3667 26.725 29.075 26.475 28.825L19.125 21.475L26.475 14.125C26.7083 13.8917 26.825 13.6043 26.825 13.263C26.825 12.921 26.7 12.625 26.45 12.375C26.2 12.125 25.9083 12 25.575 12C25.2417 12 24.95 12.125 24.7 12.375Z" fill="white"/>
</svg>
