<svg width="30" height="38" viewBox="0 0 30 38" fill="none" xmlns="http://www.w3.org/2000/svg">
<path d="M13.482 12.175L19.4999 18.475C19.5713 18.55 19.6218 18.6312 19.6513 18.7187C19.6813 18.8062 19.6963 18.9 19.6963 19C19.6963 19.1 19.6813 19.1937 19.6513 19.2812C19.6218 19.3687 19.5713 19.45 19.4999 19.525L13.482 25.8437C13.3153 26.0187 13.107 26.1062 12.857 26.1062C12.607 26.1062 12.3927 26.0125 12.2141 25.825C12.0356 25.6375 11.9463 25.4187 11.9463 25.1687C11.9463 24.9187 12.0356 24.7 12.2141 24.5125L17.4641 19L12.2141 13.4875C12.0475 13.3125 11.9641 13.097 11.9641 12.841C11.9641 12.5845 12.0534 12.3625 12.232 12.175C12.4106 11.9875 12.6189 11.8937 12.857 11.8937C13.0951 11.8937 13.3034 11.9875 13.482 12.175Z" fill="#777777"/>
</svg>
