<svg width="43" height="43" viewBox="0 0 43 43" fill="none" xmlns="http://www.w3.org/2000/svg">
<circle cx="21.5" cy="21.5" r="21.5" fill="#101010"/>
<path d="M19.8752 31.0999L28.3002 22.6999C28.4002 22.5999 28.4709 22.4916 28.5122 22.3749C28.5542 22.2582 28.5752 22.1332 28.5752 21.9999C28.5752 21.8666 28.5542 21.7416 28.5122 21.6249C28.4709 21.5082 28.4002 21.3999 28.3002 21.2999L19.8752 12.8749C19.6419 12.6416 19.3502 12.5249 19.0002 12.5249C18.6502 12.5249 18.3502 12.6499 18.1002 12.8999C17.8502 13.1499 17.7252 13.4416 17.7252 13.7749C17.7252 14.1082 17.8502 14.3999 18.1002 14.6499L25.4502 21.9999L18.1002 29.3499C17.8669 29.5832 17.7502 29.8706 17.7502 30.2119C17.7502 30.5539 17.8752 30.8499 18.1252 31.0999C18.3752 31.3499 18.6669 31.4749 19.0002 31.4749C19.3335 31.4749 19.6252 31.3499 19.8752 31.0999Z" fill="white"/>
</svg>
