<svg width="11" height="19" viewBox="0 0 11 19" fill="none" xmlns="http://www.w3.org/2000/svg">
<path d="M8.7 0.374995L0.274999 8.775C0.174999 8.875 0.104332 8.98333 0.0629991 9.1C0.0209991 9.21666 -8.39987e-07 9.34166 -8.28331e-07 9.475C-8.16674e-07 9.60833 0.0209992 9.73333 0.0629992 9.85C0.104333 9.96666 0.174999 10.075 0.274999 10.175L8.7 18.6C8.93333 18.8333 9.225 18.95 9.575 18.95C9.925 18.95 10.225 18.825 10.475 18.575C10.725 18.325 10.85 18.0333 10.85 17.7C10.85 17.3667 10.725 17.075 10.475 16.825L3.125 9.475L10.475 2.125C10.7083 1.89166 10.825 1.60433 10.825 1.263C10.825 0.920996 10.7 0.624995 10.45 0.374995C10.2 0.124995 9.90833 -4.68091e-06 9.575 -4.65177e-06C9.24166 -4.62263e-06 8.95 0.124995 8.7 0.374995Z" fill="white"/>
</svg>
